<svg xmlns="http://www.w3.org/2000/svg" width="34.53" height="34.53" viewBox="0 0 34.53 34.53"><g transform="translate(0.508 0.508)"><g transform="translate(0 0)"><path d="M33.513,16.757A16.757,16.757,0,1,1,16.757,0,16.757,16.757,0,0,1,33.513,16.757Z" fill="none" stroke="#707070" stroke-width="1.016"/><path d="M19.095,29.946h4.189V19.473h3.142l.349-4.189H23.423V13.608a.908.908,0,0,1,.908-.977H26.7V9H23.493c-3.631,0-4.4,2.653-4.4,4.4v1.885H17v4.189h2.095Z" transform="translate(-5.131 -2.716)" fill="none" stroke="#707070" stroke-width="1.016"/><path d="M33.513,16.757A16.757,16.757,0,1,1,16.757,0,16.757,16.757,0,0,1,33.513,16.757Z" fill="none" stroke="#707070" stroke-width="1.016"/><path d="M19.095,29.946h4.189V19.473h3.142l.349-4.189H23.423V13.608a.908.908,0,0,1,.908-.977H26.7V9H23.493c-3.631,0-4.4,2.653-4.4,4.4v1.885H17v4.189h2.095Z" transform="translate(-5.131 -2.716)" fill="none" stroke="#707070" stroke-width="1.016"/><path d="M33.513,16.757A16.757,16.757,0,1,1,16.757,0,16.757,16.757,0,0,1,33.513,16.757Z" fill="none" stroke="#707070" stroke-width="1.016"/><path d="M19.095,29.946h4.189V19.473h3.142l.349-4.189H23.423V13.608a.908.908,0,0,1,.908-.977H26.7V9H23.493c-3.631,0-4.4,2.653-4.4,4.4v1.885H17v4.189h2.095Z" transform="translate(-5.131 -2.716)" fill="none" stroke="#707070" stroke-width="1.016"/></g></g></svg>