<svg xmlns="http://www.w3.org/2000/svg" width="17.529" height="17.529" viewBox="0 0 17.529 17.529"><g transform="translate(0.258 0.258)"><g transform="translate(0 0)"><path d="M17.013,8.507A8.507,8.507,0,1,1,8.507,0a8.507,8.507,0,0,1,8.507,8.507Z" transform="translate(0 0)" fill="none" stroke="#707070" stroke-width="0.516"/><g transform="translate(3.19 3.19)"><rect width="2.481" height="7.089" transform="translate(0 3.544)" fill="none" stroke="#707070" stroke-width="0.516"/><path d="M10.241,11.481A1.241,1.241,0,1,0,9,10.241,1.241,1.241,0,0,0,10.241,11.481Z" transform="translate(-9 -9)" fill="none" stroke="#707070" stroke-width="0.516"/><path d="M26.734,22.19c0-1.914-.425-3.19-2.658-3.19a2.213,2.213,0,0,0-2.091.957h-.035V19H20v7.089h2.056V22.58c0-.922.177-1.808,1.311-1.808s1.205,1.063,1.205,1.879v3.438H26.7Z" transform="translate(-16.101 -15.456)" fill="none" stroke="#707070" stroke-width="0.516"/></g><path d="M17.013,8.507A8.507,8.507,0,1,1,8.507,0a8.507,8.507,0,0,1,8.507,8.507Z" transform="translate(0 0)" fill="none" stroke="#707070" stroke-width="0.516"/><g transform="translate(3.19 3.19)"><rect width="2.481" height="7.089" transform="translate(0 3.544)" fill="none" stroke="#707070" stroke-width="0.516"/><path d="M10.241,11.481A1.241,1.241,0,1,0,9,10.241,1.241,1.241,0,0,0,10.241,11.481Z" transform="translate(-9 -9)" fill="none" stroke="#707070" stroke-width="0.516"/><path d="M26.734,22.19c0-1.914-.425-3.19-2.658-3.19a2.213,2.213,0,0,0-2.091.957h-.035V19H20v7.089h2.056V22.58c0-.922.177-1.808,1.311-1.808s1.205,1.063,1.205,1.879v3.438H26.7Z" transform="translate(-16.101 -15.456)" fill="none" stroke="#707070" stroke-width="0.516"/></g><path d="M17.013,8.507A8.507,8.507,0,1,1,8.507,0a8.507,8.507,0,0,1,8.507,8.507Z" transform="translate(0 0)" fill="none" stroke="#707070" stroke-width="0.516"/><g transform="translate(3.19 3.19)"><rect width="2.481" height="7.089" transform="translate(0 3.544)" fill="none" stroke="#707070" stroke-width="0.516"/><path d="M10.241,11.481A1.241,1.241,0,1,0,9,10.241,1.241,1.241,0,0,0,10.241,11.481Z" transform="translate(-9 -9)" fill="none" stroke="#707070" stroke-width="0.516"/><path d="M26.734,22.19c0-1.914-.425-3.19-2.658-3.19a2.213,2.213,0,0,0-2.091.957h-.035V19H20v7.089h2.056V22.58c0-.922.177-1.808,1.311-1.808s1.205,1.063,1.205,1.879v3.438H26.7Z" transform="translate(-16.101 -15.456)" fill="none" stroke="#707070" stroke-width="0.516"/></g></g></g></svg>