<svg xmlns="http://www.w3.org/2000/svg" width="17.522" height="17.523" viewBox="0 0 17.522 17.523"><g transform="translate(0.258 0.258)"><g transform="translate(0 0)"><path d="M17.007,8.5A8.5,8.5,0,1,1,8.5,0a8.5,8.5,0,0,1,8.5,8.5Z" fill="none" stroke="#707070" stroke-width="0.516"/><path d="M17.574,9H11.055A2.055,2.055,0,0,0,9,11.055v6.519a2.055,2.055,0,0,0,2.055,2.055h6.519a2.055,2.055,0,0,0,2.055-2.055V11.055A2.055,2.055,0,0,0,17.574,9Zm.6,1.24h.248v1.807H16.618V10.24Zm-5.386,2.976a1.878,1.878,0,1,1-.354,1.1,1.878,1.878,0,0,1,.354-1.1ZM18.6,17.574A1.027,1.027,0,0,1,17.574,18.6H11.055a1.027,1.027,0,0,1-1.027-1.027V13.216h1.594a2.905,2.905,0,1,0,5.386,0H18.6Z" transform="translate(-5.811 -5.811)" fill="none" stroke="#707070" stroke-width="0.516"/><path d="M17.007,8.5A8.5,8.5,0,1,1,8.5,0a8.5,8.5,0,0,1,8.5,8.5Z" fill="none" stroke="#707070" stroke-width="0.516"/><path d="M17.574,9H11.055A2.055,2.055,0,0,0,9,11.055v6.519a2.055,2.055,0,0,0,2.055,2.055h6.519a2.055,2.055,0,0,0,2.055-2.055V11.055A2.055,2.055,0,0,0,17.574,9Zm.6,1.24h.248v1.807H16.618V10.24Zm-5.386,2.976a1.878,1.878,0,1,1-.354,1.1,1.878,1.878,0,0,1,.354-1.1ZM18.6,17.574A1.027,1.027,0,0,1,17.574,18.6H11.055a1.027,1.027,0,0,1-1.027-1.027V13.216h1.594a2.905,2.905,0,1,0,5.386,0H18.6Z" transform="translate(-5.811 -5.811)" fill="none" stroke="#707070" stroke-width="0.516"/><path d="M17.007,8.5A8.5,8.5,0,1,1,8.5,0a8.5,8.5,0,0,1,8.5,8.5Z" fill="none" stroke="#707070" stroke-width="0.516"/><path d="M17.574,9H11.055A2.055,2.055,0,0,0,9,11.055v6.519a2.055,2.055,0,0,0,2.055,2.055h6.519a2.055,2.055,0,0,0,2.055-2.055V11.055A2.055,2.055,0,0,0,17.574,9Zm.6,1.24h.248v1.807H16.618V10.24Zm-5.386,2.976a1.878,1.878,0,1,1-.354,1.1,1.878,1.878,0,0,1,.354-1.1ZM18.6,17.574A1.027,1.027,0,0,1,17.574,18.6H11.055a1.027,1.027,0,0,1-1.027-1.027V13.216h1.594a2.905,2.905,0,1,0,5.386,0H18.6Z" transform="translate(-5.811 -5.811)" fill="none" stroke="#707070" stroke-width="0.516"/></g></g></svg>