<svg xmlns="http://www.w3.org/2000/svg" width="17.53" height="17.53" viewBox="0 0 17.53 17.53"><g transform="translate(0.258 0.258)"><g transform="translate(0 0)"><path d="M17.014,8.507A8.507,8.507,0,1,1,8.507,0a8.507,8.507,0,0,1,8.507,8.507Z" transform="translate(0 0)" fill="none" stroke="#707070" stroke-width="0.516"/><path d="M19.35,12.142a4.4,4.4,0,0,1-1.382.532,2.2,2.2,0,0,0-1.6-.673,2.162,2.162,0,0,0-2.127,2.623,6.238,6.238,0,0,1-4.5-2.233,2.125,2.125,0,0,0,.673,2.836,2.2,2.2,0,0,1-.992-.284h0a2.162,2.162,0,0,0,1.737,2.091L10.6,17.1h-.39a2.2,2.2,0,0,0,2.02,1.489,4.431,4.431,0,0,1-2.694.922H9a6.238,6.238,0,0,0,3.332.992,6.1,6.1,0,0,0,6.2-6.1v-.284a4.4,4.4,0,0,0,1.1-1.134,4.4,4.4,0,0,1-1.241.354A2.162,2.162,0,0,0,19.35,12.142Z" transform="translate(-5.81 -7.746)" fill="none" stroke="#707070" stroke-width="0.516"/><path d="M17.014,8.507A8.507,8.507,0,1,1,8.507,0a8.507,8.507,0,0,1,8.507,8.507Z" transform="translate(0 0)" fill="none" stroke="#707070" stroke-width="0.516"/><path d="M19.35,12.142a4.4,4.4,0,0,1-1.382.532,2.2,2.2,0,0,0-1.6-.673,2.162,2.162,0,0,0-2.127,2.623,6.238,6.238,0,0,1-4.5-2.233,2.125,2.125,0,0,0,.673,2.836,2.2,2.2,0,0,1-.992-.284h0a2.162,2.162,0,0,0,1.737,2.091L10.6,17.1h-.39a2.2,2.2,0,0,0,2.02,1.489,4.431,4.431,0,0,1-2.694.922H9a6.238,6.238,0,0,0,3.332.992,6.1,6.1,0,0,0,6.2-6.1v-.284a4.4,4.4,0,0,0,1.1-1.134,4.4,4.4,0,0,1-1.241.354A2.162,2.162,0,0,0,19.35,12.142Z" transform="translate(-5.81 -7.746)" fill="none" stroke="#707070" stroke-width="0.516"/><path d="M17.014,8.507A8.507,8.507,0,1,1,8.507,0a8.507,8.507,0,0,1,8.507,8.507Z" transform="translate(0 0)" fill="none" stroke="#707070" stroke-width="0.516"/><path d="M19.35,12.142a4.4,4.4,0,0,1-1.382.532,2.2,2.2,0,0,0-1.6-.673,2.162,2.162,0,0,0-2.127,2.623,6.238,6.238,0,0,1-4.5-2.233,2.125,2.125,0,0,0,.673,2.836,2.2,2.2,0,0,1-.992-.284h0a2.162,2.162,0,0,0,1.737,2.091L10.6,17.1h-.39a2.2,2.2,0,0,0,2.02,1.489,4.431,4.431,0,0,1-2.694.922H9a6.238,6.238,0,0,0,3.332.992,6.1,6.1,0,0,0,6.2-6.1v-.284a4.4,4.4,0,0,0,1.1-1.134,4.4,4.4,0,0,1-1.241.354A2.162,2.162,0,0,0,19.35,12.142Z" transform="translate(-5.81 -7.746)" fill="none" stroke="#707070" stroke-width="0.516"/></g></g></svg>