<svg xmlns="http://www.w3.org/2000/svg" xmlns:xlink="http://www.w3.org/1999/xlink" width="371.6" height="4332" viewBox="0 0 371.6 4332"><defs><clipPath id="a"><rect width="371.6" height="4332" fill="none"/></clipPath><clipPath id="b"><rect width="382" height="4332" transform="translate(-6.1)" fill="none"/></clipPath></defs><g transform="translate(1235.007 7072)"><g transform="translate(-1049.207 -4906)"><g transform="translate(-185.8 -2166)" clip-path="url(#a)"><g clip-path="url(#b)"><path d="M-3.1,1583.6s44.1-80.3,95.3-78.5,86,52.6,161.4,144S372,1462.6,372,1462.6V966.9H-3.1Z" fill="#eee" opacity="0.52"/><path d="M371.9,470s-44.1,62.1-95.3,60.7-86-40.7-161.4-111.4S-3.1,563.5-3.1,563.5V946.8h375Z" fill="#ff5030" opacity="0.52"/><path d="M371.9,506.3s-44.1,57.4-95.3,56-86-37.6-161.4-102.9S-3.1,592.7-3.1,592.7V946.8h375Z" fill="#ff5030" opacity="0.52"/><path d="M371.9,513.3s-44.1,56.5-95.3,55.2-86-37-161.4-101.2S-3.1,598.3-3.1,598.3V946.8h375Z" fill="#ff5030" opacity="0.52"/><path d="M371.9,516.4s-44.1,56.1-95.3,54.8-86-36.7-161.4-100.5S-3.1,600.8-3.1,600.8v346h375Z" fill="#900" opacity="0.52"/><path d="M-3.1,1130s44.1-62.1,95.3-60.7,86,40.7,161.4,111.4S372,1036.5,372,1036.5V653.1H-3.1Z" fill="#900" opacity="0.52"/><path d="M-3.1,1093.6s44.1-57.4,95.3-56.1,86,37.6,161.4,102.9S372,1007.2,372,1007.2V653.1H-3.1Z" fill="#ff5030" opacity="0.52"/><path d="M-3.1,1086.6s44.1-56.5,95.3-55.2,86,37,161.4,101.2S372,1001.5,372,1001.5V653.1H-3.1Z" fill="#f5f6f7" opacity="0.52"/><path d="M-3.1,1082.3s44.1-56.1,95.3-54.8,86,36.7,161.4,100.5S371.9,997.9,371.9,997.9V652H-3.1Z" fill="#c72d1f"/><path d="M371.8,2382.8s-45.8,52.3-98.9,51.1-89.3-34.3-167.6-93.8-123,121.5-123,121.5v323H371.8Z" fill="#616161" opacity="0.52"/><path d="M371.9,2080.2s-47,91.7-101.6,89.6-91.7-60.1-172.1-164.5-126.3,213-126.3,213v566.2h400Z" fill="#eee" opacity="0.52"/><path d="M371.8,2123.2s-45.8,86.3-98.9,84.3-89.3-56.5-167.6-154.7-123,200.3-123,200.3v532.5H371.8Z" fill="#616161" opacity="0.52"/><rect width="375" height="870" transform="translate(-3.1 2785)" fill="#949494"/><path d="M378.8,2726.9S331,2785.2,275.4,2784s-93.3-35.6-175.1-97.4S-28.1,2812.7-28.1,2812.7v335.4H378.8Z" fill="#616161" opacity="0.52"/><path d="M378.8,3050.5s-45.8,78.9-98.9,77.1-89.3-51.7-167.6-141.4-123,183.1-123,183.1v486.9H378.8Z" fill="#616161" opacity="0.9"/><rect width="768" height="32" transform="translate(-134.1 3624)" fill="#acacac"/><rect width="768" height="72" transform="translate(-170.1 3560)" fill="#cecece"/><path d="M371.6,4057.7s-44,75.6-95.2,73.9S190.5,4082,115.2,3996-3.1,4171.6-3.1,4171.6v466.9H371.6Z" fill="#ff5030" opacity="0.52"/><path d="M371.6,4069.4s-44,75.6-95.2,73.9-85.9-49.6-161.2-135.6S-3.1,4183.3-3.1,4183.3v466.9H371.6Z" fill="#ff5030" opacity="0.52"/></g></g></g></g></svg>