<svg xmlns="http://www.w3.org/2000/svg" xmlns:xlink="http://www.w3.org/1999/xlink" viewBox="0 0 804 4245.269"><defs><clipPath id="a" transform="translate(0 -405.002)"><rect x="170.094" width="400" height="4332" fill="none"/></clipPath><clipPath id="b" transform="translate(0 -405.002)"><rect x="164" width="400" height="4332" fill="none"/></clipPath></defs><title>Asset 1background</title><g clip-path="url(#a)"><g clip-path="url(#b)"><path d="M167,1583.607s44.078-80.326,95.252-78.479,85.971,52.627,161.367,144.033S542,1462.657,542,1462.657v-495.8H167Z" transform="translate(0 -405.002)" fill="#eee" opacity="0.52" style="isolation:isolate"/><path d="M542,469.954s-44.078,62.109-95.252,60.683-85.971-40.692-161.367-111.368S167,563.474,167,563.474V946.837H542Z" transform="translate(0 -405.002)" fill="#ff5030" opacity="0.52" style="isolation:isolate"/><path d="M542,506.347s-44.078,57.369-95.252,56.05S360.777,524.81,285.381,459.528,167,592.73,167,592.73V946.837H542Z" transform="translate(0 -405.002)" fill="#ff5030" opacity="0.52" style="isolation:isolate"/><path d="M542,513.3s-44.078,56.464-95.252,55.166-85.971-36.994-161.367-101.246S167,598.318,167,598.318V946.837H542Z" transform="translate(0 -405.002)" fill="#ff5030" opacity="0.52" style="isolation:isolate"/><path d="M542,516.437s-44.078,56.055-95.252,54.766-85.971-36.725-161.367-100.512S167,600.843,167,600.843V946.837H542Z" transform="translate(0 -405.002)" fill="#900" opacity="0.52" style="isolation:isolate"/><path d="M167,1129.985s44.078-62.109,95.252-60.681S348.223,1110,423.619,1180.672,542,1036.465,542,1036.465V653.1H167Z" transform="translate(0 -405.002)" fill="#900" opacity="0.52" style="isolation:isolate"/><path d="M167,1093.589s44.078-57.369,95.252-56.05,85.971,37.587,161.367,102.869S542,1007.206,542,1007.206V653.1H167Z" transform="translate(0 -405.002)" fill="#ff5030" opacity="0.52" style="isolation:isolate"/><path d="M167,1086.639s44.078-56.464,95.252-55.166,85.971,36.994,161.367,101.246S542,1001.618,542,1001.618V653.1H167Z" transform="translate(0 -405.002)" fill="#f5f6f7" opacity="0.52" style="isolation:isolate"/><path d="M167,1082.349s44.078-56.055,95.252-54.766,85.971,36.725,161.367,100.512S542,997.945,542,997.945V651.951H167Z" transform="translate(0 -405.002)" fill="#c72d1f"/><path d="M541.894,2382.8s-45.785,52.329-98.941,51.126-89.3-34.284-167.617-93.831-122.967,121.5-122.967,121.5v323H541.894Z" transform="translate(0 -405.002)" fill="#616161" opacity="0.52" style="isolation:isolate"/><path d="M542,2080.246s-47.017,91.733-101.6,89.624-91.7-60.1-172.125-164.487S142,2218.374,142,2218.374V2784.59H542Z" transform="translate(0 -405.002)" fill="#eee" opacity="0.52" style="isolation:isolate"/><path d="M541.894,2123.246s-45.785,86.263-98.941,84.28-89.3-56.517-167.617-154.679-122.967,200.29-122.967,200.29V2785.59H541.894Z" transform="translate(0 -405.002)" fill="#616161" opacity="0.52" style="isolation:isolate"/><rect x="167" y="2379.998" width="375" height="870" fill="#949494"/><path d="M548.894,2726.9s-47.827,58.332-103.353,57.083-93.283-35.6-175.091-97.424S142,2812.706,142,2812.706v335.363H548.894Z" transform="translate(0 -405.002)" fill="#616161" opacity="0.52" style="isolation:isolate"/><path d="M548.894,3050.523s-45.785,78.879-98.941,77.066-89.3-51.679-167.617-141.438-122.967,183.143-122.967,183.143v486.874H548.894Z" transform="translate(0 -405.002)" fill="#616161" opacity="0.9" style="isolation:isolate"/><rect x="36" y="3218.998" width="768" height="32" fill="#acacac"/><rect y="3154.998" width="768" height="72" fill="#cecece"/><path d="M541.68,4057.735s-44.04,75.647-95.17,73.908S360.61,4082.081,285.281,3996,167,4171.64,167,4171.64v466.924H541.68Z" transform="translate(0 -405.002)" fill="#ff5030" opacity="0.52" style="isolation:isolate"/><path d="M541.68,4069.442s-44.04,75.647-95.17,73.908-85.9-49.562-161.229-135.643S167,4183.347,167,4183.347v466.924H541.68Z" transform="translate(0 -405.002)" fill="#ff5030" opacity="0.52" style="isolation:isolate"/></g></g></svg>