<svg xmlns="http://www.w3.org/2000/svg" xmlns:xlink="http://www.w3.org/1999/xlink" viewBox="0 0 1723.776 4650.271"><defs><clipPath id="a" transform="translate(358.048 -16.333)"><rect y="1.374" width="804" height="4653.523" fill="none"/></clipPath><filter id="b" x="516.048" width="393" height="237" name="a"><feOffset dy="3"/><feGaussianBlur result="b" stdDeviation="3"/><feFlood flood-opacity="0.161"/><feComposite operator="in" in="b"/><feComposite in="SourceGraphic"/></filter><filter id="c" x="516.048" y="950.515" width="393" height="718.76" name="c"><feOffset dy="3"/><feGaussianBlur result="d" stdDeviation="3"/><feFlood flood-opacity="0.161"/><feComposite operator="in" in="d"/><feComposite in="SourceGraphic"/></filter><filter id="d" x="516.048" y="382.667" width="393" height="559.837" name="e"><feOffset dy="-3"/><feGaussianBlur result="f" stdDeviation="3"/><feFlood flood-opacity="0.161"/><feComposite operator="in" in="f"/><feComposite in="SourceGraphic"/></filter><filter id="e" x="516.048" y="636.767" width="393" height="559.837" name="g"><feOffset dy="3"/><feGaussianBlur result="h" stdDeviation="3"/><feFlood flood-opacity="0.161"/><feComposite operator="in" in="h"/><feComposite in="SourceGraphic"/></filter><filter id="f" x="501.417" y="2325.694" width="407.525" height="493.044" name="i"><feOffset dy="3"/><feGaussianBlur result="j" stdDeviation="3"/><feFlood flood-opacity="0.161"/><feComposite operator="in" in="j"/><feComposite in="SourceGraphic"/></filter></defs><title>background-mobile</title><g clip-path="url(#a)"><g filter="url(#b)"><path d="M0,16.333H804v219H439.52C196.78,235.333,0,143.551,0,30.333v-14Z" transform="translate(358.048 -16.333)" fill="#ff5030"/></g><g filter="url(#c)"><path d="M0,1599.94s94.5-80.326,204.22-78.479,184.322,52.627,345.971,144.033S804,1478.99,804,1478.99V983.19H0Z" transform="translate(358.048 -16.333)" fill="#eee" opacity="0.52" style="isolation:isolate"/></g><g filter="url(#d)"><path d="M804,486.287S709.5,548.4,599.78,546.97,415.458,506.278,253.809,435.6,0,579.807,0,579.807V963.17H804Z" transform="translate(358.048 -16.333)" fill="#ff5030" opacity="0.52" style="isolation:isolate"/></g><path d="M804,522.68s-94.5,57.369-204.22,56.05S415.458,541.143,253.809,475.861,0,609.063,0,609.063V963.17H804Z" transform="translate(358.048 -16.333)" fill="#ff5030" opacity="0.52" style="isolation:isolate"/><path d="M804,529.63S709.5,586.094,599.78,584.8,415.458,547.8,253.809,483.55,0,614.651,0,614.651V963.17H804Z" transform="translate(358.048 -16.333)" fill="#ff5030" opacity="0.52" style="isolation:isolate"/><path d="M804,532.77s-94.5,56.055-204.22,54.766S415.458,550.811,253.809,487.024,0,617.176,0,617.176V963.17H804Z" transform="translate(358.048 -16.333)" fill="#900" opacity="0.52" style="isolation:isolate"/><g filter="url(#e)"><path d="M0,1146.318s94.5-62.109,204.22-60.681,184.322,40.692,345.971,111.368S804,1052.8,804,1052.8V669.435H0Z" transform="translate(358.048 -16.333)" fill="#900" opacity="0.52" style="isolation:isolate"/></g><path d="M0,1109.922s94.5-57.369,204.22-56.05,184.322,37.587,345.971,102.869S804,1023.539,804,1023.539V669.432H0Z" transform="translate(358.048 -16.333)" fill="#ff5030" opacity="0.52" style="isolation:isolate"/><path d="M0,1102.972s94.5-56.464,204.22-55.166,184.322,36.994,345.971,101.246S804,1017.951,804,1017.951V669.432H0Z" transform="translate(358.048 -16.333)" fill="#f5f6f7" opacity="0.52" style="isolation:isolate"/><path d="M0,1098.682s94.5-56.055,204.22-54.766,184.322,36.725,345.971,100.512S804,1014.278,804,1014.278V668.284H0Z" transform="translate(358.048 -16.333)" fill="#c72d1f"/><path d="M35.745,580.565" transform="translate(358.048 -16.333)" fill="none" stroke="#707070"/><path d="M0,1646.422s94.5-86.38,204.22-84.394,184.322,56.594,345.971,154.888S804,1516.355,804,1516.355V983.181H0Z" transform="translate(358.048 -16.333)" fill="none"/><g filter="url(#f)"><path d="M803.764,2415.3s-98.163,54.453-212.129,53.2-191.46-35.676-359.371-97.64S-31.377,2497.3-31.377,2497.3V2833.4H803.764Z" transform="translate(358.048 -16.333)" fill="#616161" opacity="0.52" style="isolation:isolate"/></g><path d="M804,2100.473s-100.8,95.456-217.83,93.262-196.6-62.541-369.036-171.164S-53.6,2244.205-53.6,2244.205v589.2H804Z" transform="translate(358.048 -16.333)" fill="#eee" opacity="0.52" style="isolation:isolate"/><path d="M803.773,2144.178s-98.163,89.764-212.13,87.7-191.459-58.811-359.371-160.957S-31.369,2279.34-31.369,2279.34v554.065H803.773Z" transform="translate(358.048 -16.333)" fill="#616161" opacity="0.52" style="isolation:isolate"/><rect x="358.048" y="2785" width="804" height="870" fill="#949494"/><path d="M818.781,2749.229s-98.163,54.332-212.13,53.083-191.459-35.6-359.371-97.424S-16.361,2831.04-16.361,2831.04V3166.4H818.781Z" transform="translate(358.048 -16.333)" fill="#616161" opacity="0.52" style="isolation:isolate"/><path d="M818.781,3066.856s-98.163,78.879-212.13,77.066-191.459-51.679-359.371-141.438S-16.361,3185.627-16.361,3185.627V3672.5H818.781Z" transform="translate(358.048 -16.333)" fill="#616161" opacity="0.9" style="isolation:isolate"/><rect x="77.184" y="3624" width="1646.592" height="32" fill="#acacac"/><rect y="3560" width="1646.592" height="72" fill="#cecece"/><path d="M803.314,4074.068s-94.421,75.647-204.044,73.908S415.1,4098.414,253.6,4012.333,0,4187.973,0,4187.973V4654.9H803.314Z" transform="translate(358.048 -16.333)" fill="#ff5030" opacity="0.52" style="isolation:isolate"/><path d="M803.314,4085.775s-94.421,75.647-204.044,73.908S415.1,4110.121,253.6,4024.04,0,4199.68,0,4199.68V4666.6H803.314Z" transform="translate(358.048 -16.333)" fill="#ff5030" opacity="0.52" style="isolation:isolate"/></g></svg>