<svg xmlns="http://www.w3.org/2000/svg" xmlns:xlink="http://www.w3.org/1999/xlink" width="382" height="4332" viewBox="0 0 382 4332"><defs><clipPath id="a"><rect width="382" height="4332" transform="translate(5582 -5123)" fill="#fff"/></clipPath><filter id="b" x="-6" y="-6" width="393" height="237" filterUnits="userSpaceOnUse"><feOffset dy="3" input="SourceAlpha"/><feGaussianBlur stdDeviation="3" result="c"/><feFlood flood-opacity="0.161"/><feComposite operator="in" in2="c"/><feComposite in="SourceGraphic"/></filter><filter id="d" x="-6" y="960.848" width="393" height="718.76" filterUnits="userSpaceOnUse"><feOffset dy="3" input="SourceAlpha"/><feGaussianBlur stdDeviation="3" result="e"/><feFlood flood-opacity="0.161"/><feComposite operator="in" in2="e"/><feComposite in="SourceGraphic"/></filter><filter id="f" x="-6" y="393" width="393" height="559.837" filterUnits="userSpaceOnUse"><feOffset dy="-3" input="SourceAlpha"/><feGaussianBlur stdDeviation="3" result="g"/><feFlood flood-opacity="0.161"/><feComposite operator="in" in2="g"/><feComposite in="SourceGraphic"/></filter><filter id="h" x="-6" y="647.1" width="393" height="559.837" filterUnits="userSpaceOnUse"><feOffset dy="3" input="SourceAlpha"/><feGaussianBlur stdDeviation="3" result="i"/><feFlood flood-opacity="0.161"/><feComposite operator="in" in2="i"/><feComposite in="SourceGraphic"/></filter><filter id="j" x="-20.631" y="2322.074" width="407.525" height="474.515" filterUnits="userSpaceOnUse"><feOffset dy="3" input="SourceAlpha"/><feGaussianBlur stdDeviation="3" result="k"/><feFlood flood-opacity="0.161"/><feComposite operator="in" in2="k"/><feComposite in="SourceGraphic"/></filter><filter id="l" x="-13.631" y="2670.075" width="407.525" height="491.994" filterUnits="userSpaceOnUse"><feOffset dy="3" input="SourceAlpha"/><feGaussianBlur stdDeviation="3" result="m"/><feFlood flood-opacity="0.161"/><feComposite operator="in" in2="m"/><feComposite in="SourceGraphic"/></filter></defs><g transform="translate(-5582 5123)"><g clip-path="url(#a)"><g transform="matrix(1, 0, 0, 1, 5582, -5123)" filter="url(#b)"><path d="M0,0H375a0,0,0,0,1,0,0V219a0,0,0,0,1,0,0H205A205,205,0,0,1,0,14V0A0,0,0,0,1,0,0Z" transform="translate(3)" fill="#ff5030"/></g><g transform="matrix(1, 0, 0, 1, 5582, -5123)" filter="url(#d)"><path d="M1075,1749.187s44.078-80.326,95.252-78.479,85.971,52.627,161.367,144.033S1450,1628.237,1450,1628.237v-495.8H1075Z" transform="translate(-1072 -165.58)" fill="#eee" opacity="0.52"/></g><g transform="translate(5960 -4176.163) rotate(180)"><g transform="matrix(-1, 0, 0, -1, 378, 946.84)" filter="url(#f)"><path d="M0,476.883S44.078,414.774,95.252,416.2s85.971,40.692,161.367,111.368S375,383.363,375,383.363V0H0Z" transform="translate(378 946.84) rotate(180)" fill="#ff5030" opacity="0.52"/></g><path d="M0,440.49s44.078-57.369,95.252-56.05,85.971,37.587,161.367,102.869S375,354.107,375,354.107V0H0Z" fill="#ff5030" opacity="0.52"/><path d="M0,433.54s44.078-56.464,95.252-55.166,85.971,36.994,161.367,101.246S375,348.519,375,348.519V0H0Z" fill="#ff5030" opacity="0.52"/><path d="M0,430.4s44.078-56.055,95.252-54.766,85.971,36.725,161.367,100.512S375,345.994,375,345.994V0H0Z" transform="translate(0 0)" fill="#900" opacity="0.52"/></g><g transform="matrix(1, 0, 0, 1, 5582, -5123)" filter="url(#h)"><path d="M1075,1609.315s44.078-62.109,95.252-60.681,85.971,40.692,161.367,111.368S1450,1515.795,1450,1515.795V1132.432H1075Z" transform="translate(-1072 -479.33)" fill="#900" opacity="0.52"/></g><path d="M1075,1572.922s44.078-57.369,95.252-56.05,85.971,37.587,161.367,102.869S1450,1486.539,1450,1486.539V1132.432H1075Z" transform="translate(4510 -5602.333)" fill="#ff5030" opacity="0.52"/><path d="M1075,1565.972s44.078-56.464,95.252-55.166,85.971,36.994,161.367,101.246S1450,1480.951,1450,1480.951V1132.432H1075Z" transform="translate(4510 -5602.333)" fill="#f5f6f7" opacity="0.52"/><path d="M1075,1562.83s44.078-56.055,95.252-54.766,85.971,36.725,161.367,100.512S1450,1478.426,1450,1478.426V1132.432H1075Z" transform="translate(4510 -5603.481)" fill="#c72d1f"/><path d="M0,0" transform="translate(5601.672 -4558.768) rotate(90)" fill="none" stroke="#707070" stroke-width="1"/><g transform="translate(5889 -5033.43)"><g transform="matrix(1, 0, 0, 1, -307, -89.57)" filter="url(#j)"><path d="M0,401.79s45.785-52.329,98.941-51.126,89.3,34.284,167.617,93.831S389.525,323,389.525,323V0H0Z" transform="translate(377.89 2784.59) rotate(180)" fill="#616161" opacity="0.52"/></g><path d="M0,704.344s47.017-91.733,101.6-89.624,91.7,60.1,172.125,164.487S400,566.216,400,566.216V0H0Z" transform="translate(71 2695.02) rotate(180)" fill="#eee" opacity="0.52"/><path d="M0,662.344s45.785-86.263,98.941-84.28,89.3,56.517,167.617,154.679S389.525,532.453,389.525,532.453V0H0Z" transform="translate(70.894 2695.02) rotate(180)" fill="#616161" opacity="0.52"/></g><g transform="translate(5585 -2338)" fill="#949494" stroke="#707070" stroke-width="1"><rect width="375" height="870" stroke="none"/><rect x="0.5" y="0.5" width="374" height="869" fill="none"/></g><g transform="matrix(1, 0, 0, 1, 5582, -5123)" filter="url(#l)"><path d="M0,417.173s45.785-54.332,98.941-53.083,89.3,35.6,167.617,97.424S389.525,335.362,389.525,335.362V0H0Z" transform="translate(384.89 3150.07) rotate(180)" fill="#616161" opacity="0.52"/></g><path d="M0,605.645s45.785-78.879,98.941-77.066,89.3,51.679,167.617,141.438S389.525,486.874,389.525,486.874V0H0Z" transform="translate(5966.894 -1466.832) rotate(180)" fill="#616161" stroke="#707070" stroke-width="1" opacity="0.9"/><rect width="768" height="32" transform="translate(5454 -1499)" fill="#acacac"/><rect width="768" height="72" transform="translate(5418 -1563)" fill="#cecece"/><path d="M0,580.829s44.04-75.647,95.17-73.908,85.9,49.562,161.229,135.643,118.28-175.64,118.28-175.64V0H0Z" transform="translate(5959.68 -484.436) rotate(180)" fill="#ff5030" opacity="0.52"/><path d="M0,580.829s44.04-75.647,95.17-73.908,85.9,49.562,161.229,135.643,118.28-175.64,118.28-175.64V0H0Z" transform="translate(5959.68 -472.729) rotate(180)" fill="#ff5030" opacity="0.52"/></g></g></svg>