<svg xmlns="http://www.w3.org/2000/svg" xmlns:xlink="http://www.w3.org/1999/xlink" width="1387" height="5263" viewBox="0 0 1387 5263"><defs><clipPath id="a"><rect width="1387" height="5263" transform="translate(-2353 -1087)" fill="#fff" stroke="#707070" stroke-width="1"/></clipPath><filter id="b" x="-12" y="3781.27" width="1408" height="872.23" filterUnits="userSpaceOnUse"><feOffset dy="3" input="SourceAlpha"/><feGaussianBlur stdDeviation="3" result="c"/><feFlood flood-opacity="0.161"/><feComposite operator="in" in2="c"/><feComposite in="SourceGraphic"/></filter><filter id="d" x="-8.138" y="1608.742" width="1404.517" height="1238.191" filterUnits="userSpaceOnUse"><feOffset dy="3" input="SourceAlpha"/><feGaussianBlur stdDeviation="3" result="e"/><feFlood flood-opacity="0.161"/><feComposite operator="in" in2="e"/><feComposite in="SourceGraphic"/></filter><filter id="f" x="-8.138" y="624.432" width="1404.517" height="961.467" filterUnits="userSpaceOnUse"><feOffset dy="-3" input="SourceAlpha"/><feGaussianBlur stdDeviation="3" result="g"/><feFlood flood-opacity="0.161"/><feComposite operator="in" in2="g"/><feComposite in="SourceGraphic"/></filter><filter id="h" x="-8.137" y="1062.432" width="1404.517" height="961.467" filterUnits="userSpaceOnUse"><feOffset dy="3" input="SourceAlpha"/><feGaussianBlur stdDeviation="3" result="i"/><feFlood flood-opacity="0.161"/><feComposite operator="in" in2="i"/><feComposite in="SourceGraphic"/></filter></defs><g transform="translate(1963 599)"><g transform="translate(390 488)" clip-path="url(#a)"><g transform="translate(363 1732)"><path d="M1075,2223.922s163.383-142.155,353.066-138.887,318.668,93.136,598.134,254.9S2465,2009.873,2465,2009.873V1132.432H1075Z" transform="translate(-254 4485.331) rotate(180)" fill="#ff5030" opacity="0.52"/><path d="M1075,2223.922s163.383-142.155,353.066-138.887,318.668,93.136,598.134,254.9S2465,2009.873,2465,2009.873V1132.432H1075Z" transform="translate(-254 4507.331) rotate(180)" fill="#ff5030" opacity="0.52"/><g transform="matrix(1, 0, 0, 1, -2716, -2819)" filter="url(#b)"><path d="M1075,1884.259s163.383-97.918,353.066-95.667,318.668,64.153,598.134,175.576S2465,1736.82,2465,1736.82V1132.432H1075Z" transform="translate(2462 5773.93) rotate(180)" fill="#616161" opacity="0.52"/></g><path d="M1075,2401.8s167.776-165.321,362.56-161.521,327.237,108.314,614.219,296.438,450.6-383.849,450.6-383.849V1132.432H1075Z" transform="translate(-253.621 2923.432) rotate(180)" fill="#eee" opacity="0.52"/><path d="M1075,2223.922s163.383-142.155,353.066-138.887,318.668,93.136,598.134,254.9S2465,2009.873,2465,2009.873V1132.432H1075Z" transform="translate(-254 2807.331) rotate(180)" fill="#616161" opacity="0.52"/><g transform="matrix(1, 0, 0, 1, -2716, -2819)" filter="url(#d)"><path d="M1075,2206.349s162.974-139.866,352.181-136.651,317.869,91.636,596.635,250.795,437.7-324.747,437.7-324.747V1132.432H1075Z" transform="translate(-1074.14 482.31)" fill="#eee" opacity="0.52"/></g><g transform="translate(-1328.621 -1239.101) rotate(180)"><g transform="matrix(-1, 0, 0, -1, 1387.38, 1579.9)" filter="url(#f)"><path d="M0,830.367s162.974-108.146,352.181-105.66S670.05,795.561,948.816,918.625s437.7-251.1,437.7-251.1V0H0Z" transform="translate(1387.38 1579.9) rotate(180)" fill="#ff5030" opacity="0.52"/></g><path d="M0,767s162.974-99.893,352.181-97.6S670.05,734.849,948.816,848.521s437.7-231.937,437.7-231.937V0H0Z" fill="#ff5030" opacity="0.52"/><path d="M0,754.9s162.974-98.317,352.181-96.057S670.05,723.253,948.816,835.132s437.7-228.277,437.7-228.277V0H0Z" fill="#ff5030" opacity="0.52"/><path d="M0,749.425s162.974-97.6,352.181-95.361S670.05,718.012,948.816,829.08s437.7-226.623,437.7-226.623V0H0Z" transform="translate(0 0)" fill="#900" opacity="0.52"/></g><g transform="matrix(1, 0, 0, 1, -2716, -2819)" filter="url(#h)"><path d="M1075,1962.8s162.974-108.146,352.181-105.66,317.869,70.854,596.635,193.918,437.7-251.1,437.7-251.1V1132.432H1075Z" transform="translate(-1074.14 -64)" fill="#900" opacity="0.52"/></g><path d="M1075,1899.43s162.974-99.893,352.181-97.6,317.869,65.447,596.635,179.119,437.7-231.937,437.7-231.937V1132.432H1075Z" transform="translate(-3790.137 -2883)" fill="#ff5030" opacity="0.52"/><path d="M1075,1887.328s162.974-98.317,352.181-96.057,317.869,64.415,596.635,176.293,437.7-228.277,437.7-228.277V1132.432H1075Z" transform="translate(-3790.137 -2883)" fill="#f5f6f7" opacity="0.52"/><path d="M1075,1881.857s162.974-97.6,352.181-95.361,317.869,63.948,596.635,175.015,437.7-226.623,437.7-226.623V1132.432H1075Z" transform="translate(-3790.137 -2885)" fill="#c82e20"/><path d="M1075,2287.292s160.606-150.408,347.066-146.95,313.252,98.543,587.97,269.7,431.344-349.224,431.344-349.224V1132.432H1075Z" transform="translate(-3770 -2336.689)" fill="none" opacity="0.52"/></g></g></g></svg>